<svg xmlns="http://www.w3.org/2000/svg" xmlns:xlink="http://www.w3.org/1999/xlink"><defs>
<clipPath id="clip0_33716_651">
<rect width="1" height="9" fill="white"/>
</clipPath>
</defs><symbol id="arrow"><g fill="none"><path d="M5.05 4.07 1.25.67c-.2-.2-.6-.2-.9 0-.3.2-.2.6 0 .8l3.3 3-3.2 3c-.2.2-.2.6 0 .8 0 .1.3.2.4.2.1 0 .3-.1.4-.2l3.8-3.4c.3-.2.3-.6 0-.8Z" fill="#fff"/></g></symbol><symbol id="check-mark" viewBox="0 0 13 10"><g fill="none">
<path d="M11.0454 0L4.52693 7.4L1.11728 3.5L0.0141602 4.7L4.52693 9.9L12.2488 1.3L11.0454 0Z" fill="#3F5E72"/>
</g></symbol><symbol id="close-button"><g fill="none"><path d="M13 1.2 11.8 0 6.5 5.3 1.2 0 0 1.2l5.3 5.3L0 11.8 1.2 13l5.3-5.3 5.3 5.3 1.2-1.2-5.3-5.3L13 1.2Z" fill="#000"/></g></symbol><symbol id="date" viewBox="0 0 15 15"><g fill="none">
<g opacity="0.3">
<path d="M5.5 10C5.8 10 6 9.8 6 9.5C6 9.2 5.8 9 5.5 9C5.2 9 5 9.2 5 9.5C5 9.8 5.2 10 5.5 10Z" fill="black"/>
<path d="M14 2H12V0H11V2H4V0H3V2H1C0.4 2 0 2.4 0 3V6V7V14C0 14.5 0.4 15 1 15H14C14.5 15 15 14.5 15 14V7V6V3C15 2.4 14.5 2 14 2ZM14 14H1V7H14V14ZM1 6V3H3V5H4V3H11V5H12V3H14V6H1Z" fill="black"/>
<path d="M7.5 10C7.8 10 8 9.8 8 9.5C8 9.2 7.8 9 7.5 9C7.2 9 7 9.2 7 9.5C7 9.8 7.2 10 7.5 10Z" fill="black"/>
<path d="M9.5 10C9.8 10 10 9.8 10 9.5C10 9.2 9.8 9 9.5 9C9.2 9 9 9.2 9 9.5C9 9.8 9.2 10 9.5 10Z" fill="black"/>
<path d="M5.5 11C5.2 11 5 11.2 5 11.5C5 11.8 5.2 12 5.5 12C5.8 12 6 11.8 6 11.5C6 11.2 5.8 11 5.5 11Z" fill="black"/>
<path d="M3.5 10C3.8 10 4 9.8 4 9.5C4 9.2 3.8 9 3.5 9C3.2 9 3 9.2 3 9.5C3 9.8 3.2 10 3.5 10Z" fill="black"/>
<path d="M3.5 11C3.2 11 3 11.2 3 11.5C3 11.8 3.2 12 3.5 12C3.8 12 4 11.8 4 11.5C4 11.2 3.8 11 3.5 11Z" fill="black"/>
<path d="M7.5 11C7.2 11 7 11.2 7 11.5C7 11.8 7.2 12 7.5 12C7.8 12 8 11.8 8 11.5C8 11.2 7.8 11 7.5 11Z" fill="black"/>
<path d="M9.5 11C9.2 11 9 11.2 9 11.5C9 11.8 9.2 12 9.5 12C9.8 12 10 11.8 10 11.5C10 11.2 9.8 11 9.5 11Z" fill="black"/>
<path d="M11.5 10C11.8 10 12 9.8 12 9.5C12 9.2 11.8 9 11.5 9C11.2 9 11 9.2 11 9.5C11 9.8 11.2 10 11.5 10Z" fill="black"/>
<path d="M11.5 11C11.2 11 11 11.2 11 11.5C11 11.8 11.2 12 11.5 12C11.8 12 12 11.8 12 11.5C12 11.2 11.8 11 11.5 11Z" fill="black"/>
</g>
</g></symbol><symbol id="divider"><g fill="none"><path d="M0 57V0l250 24V0l350 57L950 0v24l250-24v57H0Z" fill="#fff"/></g></symbol><symbol id="favorite"><g fill="none"><path d="M9.577 17c-.301 0-.602-.1-.803-.4-5.415-6.1-6.719-7.5-7.02-7.9C1.052 7.8.651 6.6.651 5.4c0-3 2.407-5.4 5.516-5.4 1.304 0 2.507.5 3.51 1.3C10.68.5 11.983 0 13.187 0c3.008 0 5.516 2.4 5.516 5.4 0 1.3-.502 2.5-1.304 3.4l-7.02 7.9c-.2.2-.401.3-.802.3ZM3.56 7.5c.3.4 3.51 4 6.117 6.9l6.218-7c.5-.5.701-1.2.701-2 0-1.8-1.504-3.3-3.309-3.3-1.003 0-2.006.5-2.708 1.3-.3.3-.601.4-.902.4-.3 0-.602-.2-.802-.4-.702-.8-1.705-1.3-2.708-1.3-1.805 0-3.31 1.5-3.31 3.3-.1.9.301 1.6.703 2.1-.1 0-.1 0 0 0Z" fill="#000"/></g></symbol><symbol id="food" viewBox="0 0 75 71"><g fill="none">
<path d="M70.5499 47.2H4.7499C2.4499 47.2 0.649902 49.1 0.649902 51.5V55C0.649902 57.4 2.5499 59.3 4.7499 59.3H5.6499V60.4C5.6499 65.9 9.9499 70.5 15.2499 70.5H59.8499C65.1499 70.5 69.4499 66 69.4499 60.4V59.3H70.3499C72.6499 59.3 74.4499 57.4 74.4499 55V51.5C74.6499 49.2 72.7499 47.2 70.5499 47.2ZM66.6499 60.4C66.6499 64.3 63.6499 67.4 59.9499 67.4H15.2499C11.5499 67.4 8.5499 64.2 8.5499 60.4V59.3H66.6499V60.4ZM71.7499 55C71.7499 55.7 71.1499 56.3 70.5499 56.3H4.6499C3.9499 56.3 3.4499 55.7 3.4499 55V51.5C3.4499 50.8 4.0499 50.2 4.6499 50.2H70.4499C71.1499 50.2 71.6499 50.8 71.6499 51.5C71.7499 51.5 71.7499 55 71.7499 55Z" fill="#83B3D3"/>
<path d="M16.2499 38.9L21.6499 43L26.9499 38.9L32.2499 43L37.5499 38.9L42.9499 43L48.2499 38.9L53.5499 43L58.9499 38.9L64.2499 43L70.4499 38.3L68.7499 35.8L64.2499 39.2L58.9499 35.1L53.5499 39.2L48.2499 35.1L42.9499 39.2L37.5499 35.1L32.2499 39.2L26.9499 35.1L21.6499 39.2L16.2499 35.1L10.9499 39.2L6.4499 35.8L4.7499 38.3L10.9499 43L16.2499 38.9Z" fill="#83B3D3"/>
<path d="M8.6499 32H69.4499C69.4499 31.4 69.5499 30.8 69.5499 30.1C69.5499 29.7 69.5499 29.3 69.5499 28.9C68.8499 13.2 54.8499 0.5 37.6499 0.5C20.3499 0.5 6.3499 13.2 5.6499 29C5.6499 29.4 5.6499 29.8 5.6499 30.2C5.6499 30.8 5.6499 31.5 5.7499 32.1H8.6499V32ZM37.6499 3.5C53.2499 3.5 66.0499 14.8 66.6499 29H8.6499C9.2499 14.9 22.0499 3.5 37.6499 3.5Z" fill="#83B3D3"/>
<path d="M37.6499 17.8C38.6992 17.8 39.5499 16.9046 39.5499 15.8C39.5499 14.6954 38.6992 13.8 37.6499 13.8C36.6006 13.8 35.7499 14.6954 35.7499 15.8C35.7499 16.9046 36.6006 17.8 37.6499 17.8Z" fill="#83B3D3"/>
<path d="M29.8499 12.7C30.8992 12.7 31.7499 11.8046 31.7499 10.7C31.7499 9.59543 30.8992 8.7 29.8499 8.7C28.8006 8.7 27.9499 9.59543 27.9499 10.7C27.9499 11.8046 28.8006 12.7 29.8499 12.7Z" fill="#83B3D3"/>
<path d="M45.3499 12.7C46.3992 12.7 47.2499 11.8046 47.2499 10.7C47.2499 9.59543 46.3992 8.7 45.3499 8.7C44.3006 8.7 43.4499 9.59543 43.4499 10.7C43.4499 11.8046 44.3006 12.7 45.3499 12.7Z" fill="#83B3D3"/>
</g></symbol><symbol id="housing"><g fill="none"><path d="M30.15 65.5h16V41.7h-16v23.8Zm2.9-20.9h10.1v18h-10.1v-18Z" fill="#83B3D3"/><path d="m73.25 39.8 2.1-2.1-9.9-9.9V.5h-13.9v13.6L37.95.5.65 37.7l2.1 2.1 7.8-7.8v37.6h-4v2.9h63.9v-2.9h-5.1V32l7.9 7.8Zm-10.8 29.8h-49V29l24.5-24.4L62.45 29v40.6Zm0-44.7-7.9-7.9V3.4h7.9v21.5Z" fill="#83B3D3"/><path d="M30.35 27.6c0 4.3 3.5 7.7 7.7 7.7 4.3 0 7.8-3.5 7.8-7.7 0-4.3-3.5-7.7-7.8-7.7a7.7 7.7 0 0 0-7.7 7.7Zm7.8-5a5 5 0 0 1 5 4.9c0 2.7-2.2 4.9-5 4.9a5 5 0 0 1-5-4.9c0-2.7 2.2-4.9 5-4.9ZM20.55 41.7h-3v3.9h3v-3.9ZM26.45 41.7h-3v3.9h3v-3.9ZM20.55 47.7h-3v3.9h3v-3.9ZM26.45 47.7h-3v3.9h3v-3.9ZM52.45 41.7h-3v3.9h3v-3.9ZM58.35 41.7h-3v3.9h3v-3.9ZM52.45 47.7h-3v3.9h3v-3.9ZM58.35 47.7h-3v3.9h3v-3.9Z" fill="#83B3D3"/></g></symbol><symbol id="html-academy"><g fill="none"><path d="M0 12.9v2.6h2.5v-2.6H0ZM11.6 4.5c-1.6 0-2.8.7-3.6 1.7h-.1V0h-2v15.5h2v-5.3c0-2.1 1.3-3.6 3.3-3.6 1.8 0 2.9 1.4 2.9 3.2v5.7h2V9.4c.1-3-1.8-4.9-4.5-4.9ZM26.6 4.8h-4.8V1.1h-2v3.8h-1.9v2h1.9v6c0 1.7 1 2.7 2.7 2.7h4.1v-2h-3.7c-.7 0-1.1-.4-1.1-1.1V6.8h4.8v-2ZM41.1 4.6c-1.6 0-2.9.8-3.5 2.1h-.1c-.6-1.2-1.8-2.1-3.4-2.1-1.4 0-2.5.8-3.1 1.8h-.1V4.8H29v10.6h2V10c0-2 1-3.5 2.6-3.5 1.5 0 2.4 1 2.4 2.6v6.3h2V9.8c0-2.4 1.4-3.3 2.6-3.3 1.5 0 2.4 1 2.4 2.6v6.3h2V8.9c.1-2.5-1.4-4.3-3.9-4.3ZM47.8 12.7c0 1.7 1 2.7 2.8 2.7h2v-2h-1.7c-.7 0-1.1-.4-1.1-1.1V0h-2v12.7ZM28.9 19.7c-.9-1.1-2.2-1.8-3.9-1.8-3.1 0-5.4 2.3-5.4 5.6s2.3 5.6 5.4 5.6c1.8 0 3-.8 3.8-1.9h.1v1.6h2V18.2h-2v1.5Zm-3.6 7.4c-2.2 0-3.6-1.6-3.6-3.6s1.4-3.6 3.6-3.6 3.6 1.6 3.6 3.6c0 1.9-1.4 3.6-3.6 3.6ZM44.2 22c-.5-2.4-2.6-4.1-5.4-4.1a5.4 5.4 0 0 0-5.6 5.6c0 3.1 2.2 5.6 5.6 5.6 2.8 0 4.9-1.8 5.4-4.2h-2.1a3.4 3.4 0 0 1-3.3 2.3c-2.2 0-3.6-1.6-3.6-3.6s1.4-3.6 3.6-3.6c1.6 0 2.8 1 3.3 2.2h2.1V22ZM55.1 19.7c-.9-1.1-2.2-1.8-3.9-1.8-3.1 0-5.4 2.3-5.4 5.6s2.3 5.6 5.4 5.6c1.8 0 3-.8 3.8-1.9h.1v1.6h2V18.2h-2v1.5Zm-3.6 7.4c-2.2 0-3.6-1.6-3.6-3.6s1.4-3.6 3.6-3.6 3.6 1.6 3.6 3.6c0 1.9-1.5 3.6-3.6 3.6ZM68.7 19.8c-.9-1.1-2.2-1.9-3.9-1.9-3.1 0-5.4 2.3-5.4 5.6s2.2 5.6 5.4 5.6c1.7 0 3-.8 3.8-1.8h.1v1.5h2V13.4h-2v6.4Zm-3.6 7.3c-2.2 0-3.6-1.6-3.6-3.6s1.4-3.6 3.6-3.6 3.6 1.6 3.6 3.6c-.1 2-1.5 3.6-3.6 3.6ZM78.3 17.9c-3.3 0-5.5 2.5-5.5 5.6 0 3 2.1 5.6 5.5 5.6 2.5 0 4.5-1.3 5.2-3.6h-2.1c-.5 1-1.6 1.6-3 1.6-1.9 0-3.3-1.3-3.4-2.9h8.8c.2-3.6-2-6.3-5.5-6.3Zm0 1.9c1.7 0 3 1 3.3 2.6h-6.5c.3-1.5 1.5-2.6 3.2-2.6ZM98.2 17.9c-1.6 0-2.9.8-3.6 2h-.1c-.6-1.2-1.8-2-3.4-2-1.4 0-2.5.7-3.1 1.8v-1.5h-1.9v10.6h2v-5.4c0-2 1-3.4 2.6-3.5 1.5 0 2.4 1 2.4 2.6v6.3h2v-5.6c0-2.4 1.4-3.3 2.6-3.3 1.5 0 2.4 1 2.4 2.6v6.3h2v-6.5c.1-2.6-1.4-4.4-3.9-4.4ZM109.4 27l-3.6-8.9h-2.2l4.8 11.6c-.3.9-.7 1.2-1.7 1.2h-2.5v2h2.5c1.8 0 2.8-.8 3.5-2.6l4.7-12.2h-2.1l-3.4 8.9Z" fill="#000"/></g></symbol><symbol id="i" viewBox="0 0 1 9"><g fill="none">
<g clip-path="url(#clip0_33716_651)">
<path d="M0 9H1L1 3H0L0 9Z" fill="white"/>
<path d="M1 0H0V1H1V0Z" fill="white"/>
</g>

</g></symbol><symbol id="icon-close" viewBox="0 0 20 20"><g fill="none"><path d="M.293 18.291a1 1 0 101.414 1.414L10 11.413l8.292 8.292a1 1 0 101.414-1.414l-8.292-8.292 8.292-8.292A1 1 0 1018.291.293L9.999 8.585 1.707.293A1 1 0 10.293 1.707L8.585 10 .293 18.291z"/></g></symbol><symbol id="list-view"><g fill="none"><path d="M2 0H0v2h2V0ZM16 0H4v2h12V0ZM2 4H0v2h2V4ZM16 4H4v2h12V4ZM2 8H0v2h2V8ZM16 8H4v2h12V8ZM2 12H0v2h2v-2ZM16 12H4v2h12v-2Z" fill="#000"/></g></symbol><symbol id="logo"><g fill="none"><path d="M139 0H0l59.93 65.65a12.7 12.7 0 0 0 19.14 0L139 0Z" fill="#81B3D3"/><path d="M36.8.5 69 38.2 101.09.7 36.8.5Z" fill="#23A9E1"/><path d="M61.27 14.63h17.35c-1.3-.8-4.41-4.58-6.01-3.19-.1.1-4.92-5.67-8.03-2.88-2.7 2.48-4-.3-7.02 1.59-3.6 2.39 2 3.68 3.71 4.47Zm26.78-3.49-9.83.1c3.91-4.47 5.62-3.98 9.83-.1Z" fill="#fff"/><path d="M97.88 3.58V1.2h2.1l-2.1 2.4Zm-49.34 9.35c.1.1 2.4-2.38 6.11-4.87 3.41-2.29 8.63-4.88 14.45-4.88 5.81 0 11.13 2.69 14.54 4.98 3.7 2.39 6.01 4.77 6.11 4.87l-2.5 2.99c-4.52.6-7.73 3.88-12.14 3.18-2.2-.4-2.3-1.59-2.9-2.88-.5-1-1.31-.8-2.31-1.2-.9-.4-1.5-1.1-3.41-.7-1.6.4-1.8 2.9-3.91 2.8-1.1-.1-1.2-1.6-2.81-3.59-4.11-4.87-7.92-4.18-10.53.3L68.89 37.1 48.54 12.93ZM40.1 1.2v1.9l-1.6-1.9h1.6Zm54.06 0h3.2v2.99l-3.2 3.78V1.19Zm-4.12 11.35V1.19h3.51v7.37l-3.5 3.98s.1 0 0 0Zm-.5-10.35v9.85c-1.1-1.1-2.3-2.1-3.6-2.99l3.6-6.86Zm-4.1-.3v6.77c-.51-.3-.91-.7-1.51-1-.7-.4-1.4-.9-2.2-1.3l3.7-4.47Zm-4.42-.2v4.28c-1-.5-2.1-1-3.11-1.5l3.1-2.78Zm.6-.5h3.71l-3.7 4.58V1.19Zm4.31 0h3.61l-3.6 7.07V1.19Zm-8.82 0h3.9l-3.5 3.09c-.1 0-.2-.1-.3-.1l-.1-2.99Zm-.5.4v2.39c-1-.4-2-.7-3.11-.9l3.1-1.49Zm-4.22 0v1.3l-2.2-.3 2.2-1Zm-6.81 0 2.2 1c-.8 0-1.5.1-2.2.3v-1.3Zm-4.12 0 3.11 1.5c-1.1.2-2.1.5-3.1.89V1.59Zm3.61 1.2-3.3-1.6h3.3v1.6Zm3.51-.4-2.8-1.3h2.8v1.3Zm.7-1.2h2.91l-2.9 1.3v-1.3Zm3.72 0h3.2l-3.2 1.6v-1.6ZM60.57 4.28l-3.5-3.09h3.9v2.99l-.4.1Zm-3.6-2.59 3.1 2.69c-1.1.4-2.1.9-3.1 1.49V1.69Zm-4.32.2 3.6 4.48c-1.3.7-2.5 1.49-3.6 2.39V1.89Zm-4.21.3 3.6 6.96c-1.3 1-2.5 2-3.6 3.19V2.19Zm3.7 5.97-3.6-7.07h3.6v7.07Zm4.32-2.49L52.75 1.1h3.7v4.58Zm-12.64 1.8-3.2-3.79V1.2h3.2v6.27Zm.6-6.28h3.52v11.15l-3.51-4.18V1.19ZM69.3 0H36.1v14.53L69 54.23l.2-.3 33.09-39V0h-33Z" fill="#491213"/><path d="m66.39 45.77 2.6-4.18 2.61 4.18-2.6 4.17-2.61-4.17Z" fill="#23A9E1"/><path d="M74.41 30.44c-3.4-1.99-2.6-3.48.2-4.87 1.5-.7 4.81-3.38 6.12-2.49l-6.32 7.36Zm-2.3 2.5c-2.01-.1-4.32-.4-6.32.1 1.2.29 4.2 1.18 1.4 1.88 1 1.4 2.6 1.3 3.61.1-.4-.2-.7-.5-1-.7 1.1-.3 2.1-.9 2.3-1.39Zm1.2-1.6c-.9-.8-1.9-.8-2.71 0-1.2-2.09-5.42-1.4-7.42-1.7 1.1 2.6 9.63 3.1 10.13 1.7Zm-6.82-2.19c-1.6-.5-6.82-.4-3.41-1.79 1.1-.4 6.72.1 3.4 1.8Zm2-2.98c-.5-1.1.4-2.4 1.7-1.4 1.21.8-.6 2-1.7 1.4Zm-2.9.1c-2.31.7-5.32-.8-1.6-1.5 2.3-.5 4.7.5 1.6 1.5-.1 0 .1 0 0 0Zm-2.61-6.17c-.5 1.59-1.5 1.89-1.4 0 .1-2.3 1.6-1.7 3.2-2.59 1.3-.7 2-3.38 4.32-1.8 1 .7 2.2.1 2.5 1.2 0-.1-2.9 6.67-1.3 6.67-3.21 0-1.8-3.78-.6-6.37-1.2.6-3.11 4.28-1.5 4.98-.8 1.1-3.42 2.58-4.72 1.49-1.1-1-.5-2.29-.5-3.58Zm-4.01 2.78c-5.62 0-1.8-8.55.1-8.06 2.2.7 1.9 8.16-.1 8.06Zm-6.22-8.16c-2.6-.1-1.5-2.58.3-3.08 1.7-.5 5.21 1.1 6.42 2.19-1.8.6-4.11.5-6.12.6-.2-2-.7-1.3-.6.3Z" fill="#DC6243"/><path d="M72 25.67c-2.9-2.99 4.32-2.69 5.52-3.78.8.3 7.02-5.37 8.52-4.98-1.1 1.3-3.4 5.28-5.01 5.28-1.3 0-2.6-.2-3.61.7-1.5 1.39-3.91 2.08-5.42 2.78Z" fill="#F49774"/><path d="M72.9 22.09c-1.6.9-3.1-2.49-.3-2.2 1.81.2 3.72-.2 5.42.1a5.9 5.9 0 0 1-5.11 2.1Z" fill="#F4B1A4"/><path d="M51.25 20.8c.3.4.6.79.5 1.39 0 .4-.6 1-.2 1.19l1.5-1.8c-.4-.09-3.51-3.77-3.51-4.17l-2.1 1.1c.1.4.8 0 1.2 0 .5 0 .9.4 1.3.7-1.1.89-3.8 3.27-4.11 3.27-.1 0-.7-.4-.7 0 0 .2.6.7.7.8l1.4 1.7c.4-.2-.1-.5.1-.8.1-.2 3.21-2.69 3.92-3.39Zm-3.41-4.48c.3-.1.4.3.6 0l-1.6-1.9c-.2-.3-.5-.6-.5 0 .1.4-4.02 3.69-4.22 3.79-.3.1-.5-.3-.7.1l1.4 1.69c.2.2.3.4.5.6.2.2.1-.4.1-.4-.1-.3.3-.6.6-.8 1-1 3.51-3.08 3.82-3.08Zm-5.72-.6c-1.1.3-2.4-.1-2.7-1.3-.4-1.19.4-2.38 1.3-3.08.9-.7 2.3-.6 2.8.5.2.5.1 1.1-.1 1.6-.1.29-.4.59 0 .79.6-.7 1.1-1.4 1.7-2.1-.7-.39-1-1.09-1.5-1.68-.6-.7-1.3-1.4-2.3-1.5-1.9-.3-3.61 1.7-3.81 3.39-.1.9.2 1.79.8 2.58.5.6 1.2 1.1 1.6 1.8.2.1 1.8-.7 2.1-.8.21 0 .1-.1.1-.2 0 0-.5.2 0 0ZM67.69 39.2c-.7-.5-2.6-2.99-3-3.48l-.2-.3-.2.1c-.1.1.1.4 0 .6-.5.8-3.72 3.18-3.92 3.38-.4.2-.8-.1-1 .2.5.6 1.8 2.28 2 2.28.3 0 .1-.5.1-.6.1-.2 1.7-1.58 2.31-2.08.2-.2.4.3.6.5.2.3.3.7.2 1-.1.19-.5.59-.2.79.4-.5 1.5-1.8 1.7-2 .2-.2-.4 0-.3-.1-.2.1-.5.2-.7 0-.1 0-.7-.69-.6-.79.3-.2.6-.6 1-.7.6-.1 1 1 1.1 1.4.1.4.1.8-.1 1.1-.1.3-.3.49 0 .59l1.41-1.9c0 .1-.1.1-.2 0 .1.1-.1 0 0 0Zm-9.22-8.86c-.7 0-1.4.3-2.01.8a3.52 3.52 0 0 0-.5 4.78c1.3 1.69 3.4 1.89 5.11.7 1.4-1.2 1.6-3.3.5-4.78-.8-1-2-1.5-3.1-1.5Zm1.2 1.4c.9-.1 1.5.8 1.1 1.79-.4 1-1.4 1.99-2.4 2.39-1.2.5-2.01-.5-1.5-1.7.4-.99 1.4-1.99 2.4-2.38.1 0 .2-.1.4-.1Zm-2.8-4.58c.3 0 .6.4.8 0l-1.41-1.7c-.4.2 0 .4-.1.6-.2.3-1.7.5-2.1.6.1-.4.6-1.69.8-1.79.4-.3.6.3.8-.1l-1.8-2.09c-.2-.2-.4-.7-.6-.4 0 0 0 1-.1 1.1-.11.2-.61 2.39-1.21 2.89-.3.3-1.5 1.29-1.8 1.39-.3.1-.5-.4-.81 0l1.6 1.89c.1.1.4.6.5.6.3.1 0-.6.1-.7.1-.3 1.61-1.8 2.31-1.9.9-.19 2-.49 3.01-.39-.2 0 .2 0 0 0Zm24.26 6.67c.1.4.2.9.1 1.29-.1.6-.6 1.89-1.4 1.5-.8-.4-1.4-1.1-2.11-1.7.5-.6 1-1.1 1.9-.8.2.1.4 0 .2-.2-.3-.2-2-1.29-2.1-1.19-.2.2.3.6.1 1-.1.3-.4.5-.6.8-.5-.4-1.2-.8-.7-1.5.4-.4.8-.8 1.4-.9.4-.1 1.2.3 1.3-.1-.7-.3-1.4-.7-2.1-.99.1.5-2.2 2.89-2.7 3.48-.1.1-.41.4-.41.5 0 .3.4.1.4.1.3-.1 4.41 3.28 4.51 3.58.1.2-.1.4 0 .5 0 0 .1.1.2.1.3-.3 2.91-3.88 3.51-3.98l-1.5-2.39c-.4.2-.1.7 0 .9Zm-4.01 4.37c-1.3-.9-3.61.8-4.01 1-.7.3-1.2-.4-.8-1 .3-.5.9-.8 1.5-.8.2 0 .9.1.9 0 .1-.1.1-.1 0-.2-.6-.39-1.1-.79-1.7-1.09-.1.7-.9 1.1-1.3 1.6-.5.6-1.01 1.29-1.01 1.99s.4 1.39 1.1 1.69c.7.4 1.5.1 2.21-.3.4-.3.8-.6 1.2-.8.6-.3 1.5 0 1.3.8-.2.7-.9 1.3-1.6 1.5-.4.1-.8.1-1.2-.1-.3-.1-.6-.5-.8-.1l2.3 1.58c.1-.5.3-.7.7-.99.5-.4.9-.9 1.3-1.4.81-.89 1.11-2.48-.1-3.38Zm17.65-27.95c0 .1 0 .1 0 0l-.9 1-.8.99c-.2.2-.3.3 0 .5.5-.3 3.5 4.77 3.3 5.47-.5.2-4.51-3.29-4.61-3.49 0-.1.2-.7-.1-.6-.1 0-.5.6-.6.7l-.6.7c.2.3.3 0 .6 0 .2.1 1.2.9 1.5 1.1-.5 0-1.7.1-1.9.1-.6.1-.3-.4-.7-.6l-1.5 1.79-.91 1v.1c.2.2.1.1.4 0 .3-.1 4.31 3.18 4.41 3.38.2.3-.1.6.3.8l1.2-1.4c.1-.1.1-.1 0-.1-.3-.2-.3.1-.7.1-.3-.1-2.9-2.19-3.8-2.99l5.3-.2c.2 0 .71.6.71.8-.1.2-.3.4 0 .5.3-.4.6-.7.9-1.1l.1-.2c.1 0 .1-.1.1-.2l.1-.1c.3-.3 1.2-1.29 1.1-1.39-.3-.3-.4.3-.8 0-.2-.2-.8-1.2-.9-1.39-.2-.3.4-.6.6-.7.5-.3 2.1-.8 2.31.2 0 .2-.2.4-.1.5 0 0 .1.2.2.1l2.1-2.59-.2-.2c-.5.5-5.51-1.49-5.81-1.79-.1-.2-.1-.8-.3-.8Zm-.2 2.58c.8.3 1.5.6 2.3 1l-.6.3c-.2.1-.4.3-.6.5l-1.1-1.8Zm-6.62 7.67c-1.1-.1-2.2.4-3 1.29-1.21 1.5-1.11 3.68.4 4.87 1.5 1.2 3.7.9 4.9-.5 1.2-1.49 1.1-3.68-.4-4.87-.5-.4-1.2-.7-1.9-.8Zm-1.4 1.59c.6 0 1.3.4 1.7.7.8.5 2.2 1.68 1.5 2.68 0-.1.1-.1-.1.1-.8.8-2.2.1-2.9-.5-.7-.5-2.01-1.69-1.2-2.68.3-.2.6-.3 1-.3Zm-3.11 4.27c-1.2-.1-2.41.5-3.31 1.6-.6.8-1.3 1.49-1.9 2.29.2.3.5-.1.8.1.3.2 4.1 3.28 4.1 3.48.1.3-.2.4.1.6.1.1 2.91-3.39 3.21-3.99.4-1.09.1-2.38-.8-3.18.1.1.2.1 0 0-.8-.6-1.5-.9-2.2-.9Zm-1.1 1.6h.3c1.4.4 3.4 2.09 2.1 3.58l-.4.4c-.2.2-4.21-2.99-4.01-3.19.4-.5 1.3-.9 2-.8Z" fill="#fff"/></g></symbol><symbol id="minus" viewBox="0 0 15 2"><g fill="none">
<path d="M0.114258 0L0.114258 2L14.1143 2V0L0.114258 0Z" fill="black"/>
</g></symbol><symbol id="plus" viewBox="0 0 14 14"><g fill="none">
<path d="M14 6H8V0H6V6H0V8H6V14H8V8H14V6Z" fill="black"/>
</g></symbol><symbol id="radio-button-checked" viewBox="0 0 21 20"><g fill="none">
<ellipse cx="10.4571" cy="10" rx="10.0284" ry="10" fill="white"/>
<ellipse cx="10.4571" cy="10" rx="5.01419" ry="5" fill="#3F5E72"/>
</g></symbol><symbol id="search"><g fill="none"><path d="m18.159 17.05-3.711-3.7c1.003-1.3 1.705-3 1.705-4.9 0-4.4-3.61-8-8.023-8C3.718.45.107 4.15.107 8.55c0 4.4 3.61 8 8.023 8 1.805 0 3.51-.6 4.914-1.7l3.71 3.7 1.404-1.5ZM8.13 14.55c-3.31 0-6.017-2.7-6.017-6s2.708-6 6.017-6c3.31 0 6.017 2.7 6.017 6s-2.707 6-6.017 6Z" fill="#000"/></g></symbol><symbol id="select-arrow"><g fill="none"><path d="m6.67 7.71 5.1-5.3c.3-.3.3-.9 0-1.2-.3-.3-.9-.3-1.2 0l-4.5 4.7-4.5-4.7c-.3-.3-.9-.3-1.2 0-.2.1-.3.4-.3.6 0 .2.1.4.3.6l5.1 5.3c.3.4.9.4 1.2 0Z" fill="#000"/></g></symbol><symbol id="slideshow-view"><g fill="none"><path d="M16 12H0v2h16v-2ZM14 2v6H2V2h12Zm2-2H0v10h16V0Z" fill="#000"/></g></symbol><symbol id="souvenirs" viewBox="0 0 65 77"><g fill="none">
<path d="M61.7499 22.9467H61.6499H36.9499C50.7499 16.0467 51.8499 11.6467 51.3499 9.24674C50.1499 5.24674 45.6499 2.24674 41.3499 3.84674C35.7499 5.94674 34.2499 14.2467 32.7499 20.2467C30.7499 14.1467 28.9499 6.44674 24.5499 2.54674C23.2499 1.44674 21.4499 0.246744 18.7499 0.546744C14.7499 0.946744 8.9499 5.94674 11.2499 11.5467C13.5499 16.9467 20.9499 20.3467 25.8499 23.0467H3.8499H3.5499C1.9499 23.0467 0.649902 24.3467 0.649902 25.9467V37.2467C0.649902 38.8467 1.9499 40.1467 3.5499 40.1467H3.8499V73.4467V75.8467V76.4467H61.6499V75.9467V73.4467V40.0467H61.7499C63.3499 40.0467 64.6499 38.7467 64.6499 37.1467V25.8467C64.6499 24.2467 63.3499 22.9467 61.7499 22.9467ZM43.0499 6.34674C45.1499 6.04674 48.0499 7.64674 48.3499 9.54674C48.7499 12.3467 44.9499 14.8467 43.2499 15.9467C40.7499 17.6467 38.3499 18.5467 35.9499 20.0467C36.8499 16.3467 38.4499 7.04674 43.0499 6.34674ZM20.1499 16.3467C17.9499 14.8467 13.6499 11.9467 13.7499 8.54674C13.8499 4.94674 19.4499 1.94674 22.5499 4.64674C26.4499 8.04674 28.2499 15.7467 29.6499 21.2467C26.4499 19.7467 23.3499 18.4467 20.1499 16.3467ZM26.1499 73.4467H6.7499V40.0467H26.1499V73.4467ZM26.1499 36.9467H3.6499V25.9467H26.1499V36.9467ZM36.3499 36.9467V39.9467V73.4467H29.1499V40.0467V37.0467V26.0467H36.3499V36.9467ZM58.6499 73.4467H39.2499V40.0467H58.6499V73.4467ZM61.5499 36.9467H39.2499V25.9467H61.5499V36.9467Z" fill="#83B3D3"/>
</g></symbol><symbol id="star"><g fill="none"><path d="m9 0 2.1 6.5H18l-5.6 4 2.2 6.5L9 13l-5.6 4 2.2-6.5-5.6-4h6.9L9 0Z" fill="#83B3D3"/></g></symbol><symbol id="table-view"><g fill="none"><path d="M4 0H0v6h4V0ZM16 0h-4v6h4V0ZM10 0H6v6h4V0ZM4 8H0v6h4V8ZM16 8h-4v6h4V8ZM10 8H6v6h4V8Z" fill="#000"/></g></symbol><symbol id="telegram" viewBox="0 0 18 16"><g fill="none">
<path d="M16.7855 0.59926L0.840977 6.74776C-0.247172 7.18481 -0.240877 7.79184 0.641333 8.06253L4.73493 9.33953L14.2063 3.3637C14.6542 3.09121 15.0634 3.2378 14.727 3.53636L7.05332 10.4619H7.05152L7.05332 10.4628L6.77094 14.6823C7.18462 14.6823 7.36718 14.4925 7.5992 14.2686L9.58754 12.3351L13.7234 15.39C14.486 15.81 15.0337 15.5941 15.2234 14.6841L17.9384 1.88885C18.2163 0.774623 17.513 0.270117 16.7855 0.59926Z" fill="#83B3D3"/>
</g></symbol><symbol id="union"><g fill="none"><path fill-rule="evenodd" clip-rule="evenodd" d="m.16 6.15 6-5.5 6 5.5v6.2h-12v-6.2Zm1 .4v4.8h10v-4.8l-5-4.5-5 4.5Zm4 3.8h-1v-3.5h4v3.5h-1v-2.5h-2v2.5Z" fill="#fff"/></g></symbol><symbol id="vk"><g fill="none"><path fill-rule="evenodd" clip-rule="evenodd" d="M23.45 1.45c.17-.55 0-.95-.8-.95h-2.62c-.67 0-.98.35-1.14.73 0 0-1.34 3.2-3.23 5.27-.61.6-.89.8-1.22.8-.17 0-.42-.2-.42-.74V1.45c0-.66-.18-.95-.74-.95H9.15c-.42 0-.67.3-.67.6 0 .61.95.76 1.05 2.5v3.8c0 .84-.16.99-.5.99-.88 0-3.05-3.21-4.33-6.89-.25-.71-.5-1-1.17-1H.9c-.75 0-.9.35-.9.73 0 .68.89 4.07 4.14 8.55 2.18 3.06 5.23 4.72 8.01 4.72 1.67 0 1.88-.37 1.88-1v-2.32c0-.73.16-.88.69-.88.38 0 1.05.2 2.61 1.67 1.78 1.75 2.07 2.53 3.08 2.53h2.62c.75 0 1.13-.37.91-1.1-.24-.72-1.09-1.77-2.21-3.02-.62-.7-1.54-1.47-1.81-1.86-.4-.49-.28-.7 0-1.14 0 0 3.2-4.43 3.53-5.93Z" fill="#83B3D3"/></g></symbol><symbol id="welcome"><g fill="none"><path d="m152.3 56.1-2.8 4.9h-2.7l-.9 1.4h2.8l-6.1 10.4c-1.3 2.2-.4 4.2 2.1 4.2 1.8 0 3.7-1.3 5.6-3.1 0 3.8 5.3 4.5 8.6.5h.7c1.8 0 4.6-1.1 6.2-2.9-.2-.4-.7-.9-1.1-1l-.2.2c-1.4 1.5-3 2.2-4.6 2.2l2.8-4.8c1.8-3.1.1-6.1-2.7-6.1-2.3 0-4.1.9-5.9 3.9l-1.5 2.6-1.2 2.1-.2.2c-2.2 2.5-4.3 4.5-5.6 4.5-.7 0-1-.5-.3-1.6l6.5-11.2h2.5l.7-1.5h-2.5l2.8-4.9h-3Zm7.5 7.8c1 .1 1.4 1.3.4 3l-2.2 3.7h-.1c-1 0-1.8.8-1.8 1.8 0 .4.1.7.3 1v.1c-1.4 2.4-4.9 2-3.1-1.1l2.3-3.9 1.5-2.4c.9-1.6 2-2.2 2.7-2.2Zm22-7.8L179 61h-2.7l-.9 1.4h2.8L172 72.8c-1.3 2.2-.4 4.2 2.1 4.2 1.2 0 2.5-.6 3.9-1.6l-.8 1.3h3l4.6-7.9c4.6-5.8 6.7-5 5.4-2.8l-3.9 6.7c-1.3 2.2-.4 4.2 2.1 4.2 1.8 0 3.8-1.4 5.7-3.2.1 1.9 1.7 3.2 4.1 3.2 3.4 0 6.8-2.6 9.3-5.5-.2-.4-.7-.9-1.1-1l-.2.2c-2.2 2.5-5 4.5-7.1 4.5-1.9 0-3-1.1-1.6-3.6l.3-.5c1.9.8 5.6.4 7.9-3.4l.4-.7c1.6-2.8.1-4.8-2.4-4.8-2.4 0-4.4 1.3-5.7 3.4l-2.9 5-.2.2c-2.2 2.5-4.3 4.5-5.6 4.5-.7 0-1-.5-.4-1.6l4.4-7.5c1.3-2.3.1-3.9-1.6-3.9-1.3 0-2.7.7-4.2 2.3l4.8-8.3h-3l-8.4 14.4-.2.2c-2.2 2.5-4.3 4.5-5.6 4.5-.7 0-1-.5-.3-1.6l6.5-11.2h2.5l.9-1.4h-2.5l2.8-4.9-3.2-.1Zm21.3 8.2c1-.1 1.5.9.5 2.6l-.4.7c-1.4 2.4-3.4 2.4-4.5 2l1.9-3.4c.7-1.2 1.7-1.8 2.5-1.9Zm44.3-5.4c-1.7 1.5-1.9 3.2-.8 4.6l.3.3c-1.3 1.9-3.1 4.4-5.1 6.7l-.2.2c-1.4 1.5-3 2.2-4.6 2.2l2.8-4.8c1.8-3.1.1-6.1-2.7-6.1-2.3 0-4.1.9-5.9 3.9l-1.5 2.6-1.2 2.1-.2.2c-2.5 2.8-4.6 4.7-7 5.7l6.8-11.4h-1.8c0-1.2-1.3-2.9-3.2-2.9-1.6 0-3.9 1.3-5.2 3.4l-4.2 7.2c-1.3 2.2-.4 4.2 2.1 4.2.8 0 1.9-.4 2.9-1l-.8 1.4c-4.1 1.2-6.6 2.9-6.6 5.1 0 2.9 4.4 3.5 6.6-.2l2.3-3.9c2.4-.7 4.8-2.1 7.2-4.5 0 3.8 5.3 4.6 8.6.5h.7c1.8 0 4.6-1.1 6.2-2.9 1.4-1.7 2.6-3.2 5-6.4l.4.5c.4.5.5 1.1.2 1.7l-3.2 5.5c-1.3 2.2-.4 4.2 2.1 4.2 1.5 0 3.2-1 4.8-2.4-.1 1.4.9 2.4 2.6 2.4.8 0 1.9-.4 2.9-1l-.8 1.4c-4.1 1.2-6.6 2.9-6.6 5.1 0 2.9 4.4 3.5 6.6-.2l2.3-3.9c2.5-.8 4.9-2.2 7.4-4.6.1 1.9 1.7 3.2 4.1 3.2 2.5 0 4.9-1.4 7-3.2-.1 3.9 5.3 4.7 8.6.6h.7c.9 0 2.2-.3 3.4-.9-.8 2.1-.1 3.5 1.7 3.5 1.7 0 3.5-1.5 5-2.9-.3 1.6.7 2.9 2.6 2.9 2.5 0 5.4-2.6 7.9-5.5 1.7-2 3.2-4 4.3-5.4-1.2 3.1-.6 8.7-3.4 8.7-1 0-1.4-1.1-1.4-1.1l-1.9 1s.6 2.4 3.3 2.4c.3 0 .6 0 .8-.1h.1c3.1-.4 6.1-2.8 8.4-5.4-.2-.5-.7-.9-1.1-1l-.2.2c-1.1 1.2-2.3 2.3-3.6 3.2 1-2.8.8-7.2 2.6-11l-2.3-1.2c-1.2 1.7-4 5.6-6.7 8.7l-.2.2c-2.2 2.5-4.3 4.5-5.6 4.5-.7 0-1-.5-.3-1.6l6.4-11.2h-3l-5.4 9.3c-2.3 2.1-4.1 3.2-4.6 3-.8-.3 0-1.4.4-2.1l5.9-10.2h-3l-4.7 8.1-.2.2c-1.4 1.5-3 2.2-4.6 2.2l2.8-4.8c1.8-3.1.1-6.1-2.7-6.1-2.3 0-4.1.9-5.9 3.9l-1.5 2.6-1.2 2.1-.2.2c-2.2 2.5-5 4.5-7.1 4.5-1.9 0-3-1.1-1.6-3.6l.3-.5c1.9.8 5.6.4 7.9-3.4l.4-.7c1.6-2.8.1-4.8-2.4-4.8-2.4 0-4.4 1.3-5.7 3.4l-2.9 5-.2.2c-2.5 2.8-4.6 4.7-7 5.7l6.8-11.4h-1.8c0-1.2-1.3-2.9-3.2-2.9-1.6 0-3.9 1.3-5.2 3.4l-2.9 4.9-.2.2c-2.2 2.5-4.3 4.5-5.6 4.5-.7 0-1-.5-.3-1.6l3-5.2c1-1.8.6-2.9-.4-4l-1.7-2c-.4-.5-.4-1.1.2-1.7l-1.9-1.9Zm-10.3 5c1 .1 1.5 1.3.4 3l-2.2 3.7h-.1c-1 0-1.8.8-1.8 1.8 0 .4.1.7.3 1v.1c-1.4 2.4-4.9 2-3.1-1.1l2.3-3.9 1.5-2.4c.9-1.6 1.9-2.2 2.7-2.2Zm50.2 0c1 .1 1.5 1.3.4 3l-2.2 3.7h-.1c-1 0-1.8.8-1.8 1.8 0 .4.1.7.3 1v.1c-1.4 2.4-4.9 2-3.1-1.1l2.3-3.9 1.5-2.4c.8-1.6 1.9-2.2 2.7-2.2Zm-11.7.4c1-.1 1.5.9.5 2.6l-.4.7c-1.5 2.4-3.4 2.4-4.5 2l1.9-3.4c.7-1.2 1.7-1.8 2.5-1.9Zm-52.4.2c1 0 1.7.9.8 2.4l-2.3 4c-1.8 2.9-3.7 4.3-4.9 4.3-.7 0-1-.5-.3-1.6l4.2-7.3c.7-1.2 1.7-1.8 2.5-1.8Zm38.9 0c1 0 1.7.9.8 2.4l-2.3 4c-1.8 2.9-3.7 4.3-4.9 4.3-.7 0-1-.5-.3-1.6l4.2-7.3c.7-1.2 1.7-1.8 2.5-1.8Zm-45.3 14.9-1.4 2.4c-.6 1.1-1.7.9-1.7.1 0-.7.8-1.6 3.1-2.5Zm38.9 0-1.4 2.4c-.6 1.1-1.7.9-1.7.1.1-.7.8-1.6 3.1-2.5ZM101 67.8h28.9v1.9H101v-1.9Zm227.1 0H357v1.9h-28.9v-1.9Z" fill="#766458"/><path d="M322.7 37.4v7.7h-20.8V.4h20.8V8h-13.2v10.8H320v7.7h-10.5v10.9h13.2ZM289.9.4h7.6v44.7h-7.6v-22l-3 11.4h-7.4l-3-11.4v22h-7.6V.4h7.6l6.8 21.6L289.9.4ZM258 8h-5.5v29.3h5.5V8Zm3-7.6c2.5 0 4.7 2.1 4.7 4.7v35.3c0 2.6-2.2 4.7-4.7 4.7h-11.4c-2.6 0-4.7-2.2-4.7-4.7V5.1c0-2.6 2.1-4.7 4.7-4.7H261Zm-28 28.2 7.7-1.8v13.6c0 2.6-2.2 4.7-4.7 4.7h-11.4c-2.6 0-4.7-2.2-4.7-4.7V5.1c0-2.6 2.1-4.7 4.7-4.7H236c2.5 0 4.7 2.1 4.7 4.7v9.1L233 16V8h-5.5v29.3h5.5v-8.7Zm-16.8 8.8v7.7H198V.4h7.6v37h10.6Zm-21.4 0v7.7H174V.4h20.8V8h-13.2v10.8h10.5v7.7h-10.5v10.9h13.2ZM162.6.4h7.7L169 45.1h-14.5l-2-18.5-2 18.5H136L135 .4h7.6l.6 37h.8l4.8-37h7.6l4.9 37h.8l.5-37Z" fill="#81B3D3"/><path d="m380.7 213.9 25.4-74h25.2l25.7 74h-20.2l-3.7-13.4h-28.6l-3.8 13.4h-20Zm35.7-52.1-7.5 24.5H429l-7.5-24.5-1.2-3.6c-.3-1.3-.6-2.5-.8-3.8-.2-.5-.3-.9-.3-1.3-.1-.5-.2-.9-.2-1.3-.1.4-.2.8-.3 1.3-.1.4-.2.8-.2 1.3-.1.2-.1.3-.1.5 0 .1 0 .2-.1.3-.2 1.1-.5 2.3-.8 3.4-.5 1-.8 2.1-1.1 3.2Zm-117.7 52.1v-74h19.5l27.9 38c.7 1.1 1.4 2.3 2 3.5.7 1.2 1.4 2.4 2 3.6l1.4 3c.5 1 .9 2 1.4 2.9l-.3-2.4c-.1-.8-.2-1.6-.2-2.4-.2-1.6-.3-3.2-.3-4.8-.1-1.7-.1-3.3-.1-5V140h19.4v74H352l-28.1-38.2c-.8-.9-1.5-2-2.2-3.3-.7-1.3-1.4-2.7-2-4.1-.4-1-.9-1.9-1.4-2.9-.4-.9-.7-1.9-1.2-2.8a93.41 93.41 0 0 1 1.2 14.7v36.5h-19.6Zm-88-54.9c3.6-6.6 8.5-11.6 14.9-15.1a40.8 40.8 0 0 1 22.7-5.1c1 .1 2 .2 2.9.2 2.9.4 5.7 1.1 8.5 2.1a36.1 36.1 0 0 1 20.9 18.2c3 5.9 4.5 12 4.5 18.5 0 .8 0 1.6-.1 2.4 0 .8-.1 1.5-.2 2.3-.2 1.7-.5 3.3-.9 4.9-.4 1.6-.9 3.1-1.5 4.6-3.3 7.5-8.3 13.4-15.2 17.5-6.9 4.1-14.1 6.2-21.7 6.2-.5 0-1.1 0-1.6-.1h-1.5c-2.7-.2-5.3-.7-7.9-1.4-2.6-.7-5.1-1.7-7.4-2.9a37.5 37.5 0 0 1-15.3-14.5c-3.7-6.3-5.6-12.9-5.6-19.7 0-1 0-2 .1-3s.2-2.1.5-3.1c.4-2 .9-4.1 1.6-6 .4-2.2 1.3-4.1 2.3-6Zm52.8 26.6.6-2.4c.2-.9.4-1.7.5-2.6.1-.5.1-1.1.1-1.6.1-.5.1-1 .1-1.5s0-.9-.1-1.4v-1.4c-.4-3.3-1.4-6.5-3-9.6-1.6-3.1-3.9-5.5-6.7-7.2-.8-.4-1.5-.7-2.3-1-.8-.3-1.5-.6-2.3-.8-.8-.2-1.5-.3-2.3-.3-.8-.2-1.5-.2-2.3-.2-3.9 0-7.6 1.2-10.9 3.7-3.3 2.5-5.7 5.8-7 9.9l-.2.5v.5l-.6 2.2c-.2.7-.3 1.4-.5 2.2l-.2 1.6v2.4c0 .2 0 .5.1.8.2 4.1 1.5 8 3.7 11.7 2.3 3.6 5.5 6 9.5 7.2l1.4.5c.5.1 1 .2 1.5.2l1.4.2h1.4c4.1 0 7.8-1.2 11-3.6 3.3-2.6 5.7-5.9 7.1-10ZM181.4 207a32.6 32.6 0 0 1-11.8 5.1c-4.2.9-8.6 1.5-12.9 1.7-1.2.1-2.5.1-3.7.1h-23.8v-74h25.1a71.43 71.43 0 0 1 15.9 1.8c4.1.9 7.9 2.7 11.3 5.1 4.3 3 7.7 7 10.1 12 2.4 5 3.8 10.1 4.1 15.3.1.5.1.9.1 1.4v2.9c-.2 5.5-1.5 10.8-3.9 15.9s-6 9.4-10.5 12.7Zm-32.4-9.7c.2 0 .5 0 .7.1h.8c.3 0 .6 0 .8.1h3.1c.9-.1 1.7-.2 2.4-.2 2-.2 4-.5 5.9-1 1.9-.5 3.7-1.4 5.2-2.4 2.5-1.8 4.3-4.2 5.5-7.2 1.2-3.1 1.9-6.3 1.9-9.6v-.9c0-.3 0-.6-.1-.9-.2-2.9-.9-5.8-2.1-8.5-1.2-2.8-2.9-5-5.1-6.6-1.6-1.3-3.5-2.2-5.5-2.7s-4-.7-6-.8H149v40.6Zm-79.9 16.6v-74h45.4V156H88.9v13h24v15.8h-24v12.5h25.5v16.6H69.1ZM9.7 190.1c.1.1.1.2.1.2.1 0 .2 0 .2.1 2.1 2.3 4.5 4.5 7.1 6.5 2.6 1.9 5.7 3 9.1 3.1.1 0 .2 0 .2.1h.3c.1 0 .2 0 .2.1h1.3c.4-.1.7-.2 1-.2 1.2-.2 2.4-.7 3.5-1.4 1.2-.7 2.1-1.5 2.7-2.6l.2-.5.2-.5c.2-.5.3-1 .3-1.5.1-.5.1-.9.1-1.3 0-2.1-.9-3.8-2.8-5.2-1.7-1.4-3.7-2.6-5.8-3.4-.8-.3-1.6-.5-2.4-.7l-2.2-.6h-.2c-.1-.1-.2-.1-.2-.1-3.8-.9-7.4-2.4-10.7-4.4-3.3-2.1-5.6-5.1-6.9-8.9-.2-.8-.5-1.6-.7-2.4-.2-.9-.3-1.8-.3-2.7v-3.4c.1-.6.2-1.2.3-1.9.2-1.6.6-3.1 1.2-4.6.5-1.5 1.2-2.9 2.1-4.2 2.5-4.1 5.7-7 9.5-8.8 3.9-1.8 8.1-2.7 12.3-2.7 1 0 2 .1 3 .2l3.3.3c2.8.5 5.6 1.3 8.2 2.3 2.8 1.1 5.3 2.4 7.7 3.8l-6.4 14.3c-2.1-1.5-4.3-2.9-6.6-4.1a15.9 15.9 0 0 0-7.5-1.7h-.9c-1.8.2-3.4 1-5 2.4-1.5 1.3-2.3 2.7-2.3 4.3v.7c.1.2.2.5.3.7.2.5.4 1 .8 1.5s.8.9 1.3 1.3c.9.7 2.1 1.4 3.7 2 1.6.5 3.3 1.1 5.1 1.6 1.5.4 2.9.8 4.3 1.2 1.4.3 2.6.6 3.5.9 4.3 1.5 7.6 4.1 9.8 7.8 2.2 3.6 3.3 7.4 3.4 11.4v.6c0 .5 0 .9-.1 1.4v1.3c-.5 4-1.8 7.9-3.9 11.5-2.1 3.6-4.9 6.4-8.5 8.4-1.3.6-2.7 1.2-4.1 1.6-1.4.4-2.8.7-4.2 1-1.1.2-2.3.4-3.5.5-1.1.2-2.2.2-3.4.2H26c-4.6-.2-9.2-1.2-13.7-3-4.5-1.9-8.5-4.5-12-7.7l9.4-14.8Zm341.6 147.1c0-.3.1-.6.2-.9.1-.3.3-.6.5-.8.2-.2.5-.4.8-.6.3-.1.7-.2 1.1-.2.5 0 .9.1 1.3.3.4.2.8.4 1.1.7.2.3.4.6.6 1 .1.4.2.8.2 1.3 0 .9-.2 1.6-.5 2.4-.3.7-.7 1.4-1.3 1.9a5 5 0 0 1-1.7 1.2c-.3.1-.5.3-.7.4-.1.1-.2.1-.4.2l-1.4-2c.2-.1.5-.2.8-.4.3-.1.6-.3.9-.5.3-.2.5-.5.7-.8.2-.3.3-.6.3-1-.6 0-1.2-.2-1.7-.6-.6-.3-.8-.8-.8-1.6Zm7.8 0c0-.3.1-.6.2-.9.1-.3.3-.6.5-.8.2-.2.5-.4.8-.6.3-.1.7-.2 1.1-.2.5 0 .9.1 1.3.3.4.2.8.4 1.1.7.2.3.4.6.6 1 .1.4.2.8.2 1.3 0 .8-.1 1.6-.5 2.4-.3.7-.7 1.4-1.3 1.9a5 5 0 0 1-.8.7c-.3.2-.6.4-.9.5-.3.1-.5.3-.7.4-.1.1-.2.1-.4.2l-1.3-2c.2-.1.5-.2.8-.4.3-.1.6-.3.9-.5.3-.2.5-.5.7-.8.2-.3.3-.6.3-1-.6 0-1.2-.2-1.7-.6-.7-.3-.9-.8-.9-1.6ZM94.5 278.5c0 .3-.1.6-.2.9-.1.3-.3.6-.5.8a2.73 2.73 0 0 1-3.2.5c-.4-.2-.8-.4-1.1-.7-.3-.3-.5-.7-.6-1-.1-.4-.2-.8-.2-1.3 0-.9.2-1.6.5-2.4.3-.7.7-1.4 1.3-1.9.3-.3.5-.5.8-.7.3-.2.6-.4.9-.5.3-.1.5-.3.7-.4.2-.1.3-.1.4-.2l1.3 2c-.3.1-.6.2-.8.4-.3.1-.6.3-.9.5-.3.2-.5.5-.7.8-.2.3-.3.6-.3 1 .7 0 1.2.2 1.7.6.7.4.9.9.9 1.6Zm-7.8 0c0 .6-.2 1.2-.7 1.7-.2.2-.5.4-.8.6a3.08 3.08 0 0 1-2.4-.1c-.4-.2-.8-.4-1.1-.7-.3-.3-.5-.7-.6-1-.1-.4-.2-.8-.2-1.3 0-.9.2-1.6.5-2.4.3-.7.7-1.4 1.3-1.9.2-.2.5-.5.8-.7.3-.2.6-.4.9-.5.3-.1.5-.3.7-.4.2-.1.3-.1.4-.2l1.3 2c-.2.1-.5.2-.8.4-.3.1-.6.3-.9.5-.3.2-.5.5-.7.8-.2.3-.3.6-.3 1 .7 0 1.2.2 1.7.6.6.4.9.9.9 1.6ZM332 335.4h3.8l11.8-20.6h-3.8L332 335.4Zm-.1 1.5c-1.2 0-2.2 1-2.2 2.2 0 1.2.9 2.2 2.2 2.2 1.2 0 2.2-.9 2.2-2.2 0-1.3-1-2.2-2.2-2.2Zm-26.4-5.5 1.1-1.9c4.4-6.1 7.3-4.4 6-2.1l-1.8 3.1c-1.1 1.9-4.5 3.3-5.3.9Zm25.1 2.9c-.2-.6-.9-1.2-1.4-1.3l-.3.3c-1.3 1.6-2.9 2.9-4.5 4.1 1.2-3.6.9-9.1 3.3-14l-2.8-1.5c-1.6 2.1-5 7.1-8.4 11.1l-.3.3c-2.7 3.2-5.4 5.7-7 5.7-.8 0-1.6-.8-1.6-2.5v-1.6c2.7.3 5.5-1.4 7.2-4.5l1-1.7c3.5-6-2.2-8-6.1-4.5l5.4-9.3h-3.8l-10.8 18.7c-.2-.2-.4-.3-.7-.5l-.3.3c-2.7 3.2-6.2 5.7-8.9 5.7-2.3 0-3.7-1.5-2-4.5l3.9-6.8c2.2-3.7 6-3.1 3.8.8l-.5.9h3.1l.5-.9c2-3.5.1-6.1-3-6.1s-5.5 1.6-7.1 4.4l-3.7 6.4c-.1 0-.2-.1-.2-.1l-.3.3c-2.7 3.2-5.4 5.7-7 5.7-.8 0-1.3-.6-.4-2.1l8.1-14.1H282l-6.7 11.7c-2.9 2.6-5.1 4.1-5.8 3.7-.9-.4 0-1.8.5-2.6l7.4-12.9h-3.8l-7.3 12.7c-.8.7-2.4 1.4-3.2 1.9 1.2-3.6.9-9.1 3.3-14l-2.8-1.5c-1.6 2.1-10.3 13.7-13.7 17.7.3.5.9.9 1.4 1.3 2.1-2.5 9.3-11.7 10.7-13.5-1.5 3.9-.7 11-4.3 11-1.3 0-1.8-1.4-1.8-1.4l-2.4 1.2s.7 3 4.1 3c.4 0 .7 0 1.1-.1h.1c1.9-.3 4.6-1.1 6.4-2.4 0 1.5.9 2.5 2.5 2.5 2.1 0 4.4-1.9 6.2-3.6-.4 2 .8 3.6 3.2 3.6 2.3 0 5-1.9 7.4-4.4 0 2.5 2 4.4 5.1 4.4 3.1 0 6.1-1.7 8.7-4l-2.1 3.7h3.8l4.3-7.5v3c0 3.2.6 4.9 3.7 4.9s6.7-3.3 9.8-7c2.1-2.5 4-5.1 5.4-6.9-1.5 3.9-.7 11-4.3 11-1.3 0-1.8-1.4-1.8-1.4l-2.4 1.2s.7 3 4.1 3c.4 0 .7 0 1.1-.1h.1c4-.5 7.8-3.6 10.6-6.9ZM216 333.2h-.2c-1.2 0-2.2 1-2.2 2.3 0 .5.1.9.4 1.3v.1c-1.8 3-6.1 2.5-3.9-1.5l2.9-5 1.8-3.1c2.7-4.5 6.3-2.7 4 1.2l-2.8 4.7Zm-25.4 14.2c-.8 1.4-2.1 1.2-2.1.2s.9-2.1 3.8-3.2l-1.7 3Zm-28.8-13.8c-2.3 3.6-4.5 5.3-6.1 5.3-.8 0-1.3-.6-.4-2.1l5.3-9.2c2-3.5 6.1-2.6 4.2.8l-3 5.2Zm-12-14.7c1.1-1.9 2.4-2.8 3.4-2.8 1.4 0 2.1.9 2.1 2.3 0 3.5-4.4 10.8-10.2 9.9h-.8l5.5-9.4Zm92.8 14.1-.3.3c-2.7 3.2-5.4 5.7-7 5.7-.8 0-1.3-.6-.4-2.1l5.4-9.6c1.6-2.9.1-4.9-2-4.9-1.6 0-3.3.9-5.2 2.8l1.4-2.5h-3.8l-6.1 10.5c-.2-.1-.3-.2-.5-.3l-.3.3a7.79 7.79 0 0 1-5.7 2.8l3.6-6.1c2.3-4 .2-7.7-3.4-7.7-2.9 0-5.2 1.2-7.3 4.9l-1.9 3.2-1.6 2.8c-.1-.1-.2-.1-.3-.2l-.3.3c-3.1 3.6-5.8 5.9-8.8 7.2l10.4-17.7h-3.8l-6.7 11.6c-2.9 2.7-5.2 4.2-5.9 3.9-.9-.4 0-1.8.5-2.6l7.4-12.9h-3.8l-6 10.4c-.1-.1-.2-.1-.3-.2l-.3.3c-2.7 3.2-5.4 5.7-7 5.7-.8 0-1.3-.6-.4-2.1l5.4-9.6c1.6-2.9.1-4.9-2-4.9-1.6 0-3.3.9-5.2 2.8l1.4-2.5H178l-6 10.4c-.1-.1-.2-.1-.4-.2l-.3.3c-2.7 3.2-5.4 5.7-7 5.7-.8 0-1.3-.6-.4-2.1L170 326h-2.1c.1-1.6-1.5-3.8-4-3.8-2 0-4.9 1.6-6.5 4.4l-3.9 6.7c-.3-.2-.6-.4-.8-.5l-.3.3c-2.7 3.2-4.8 5.7-8.6 5.7-2.6 0-4.1-2.6-1.9-6.4l1.1-1.9c.7.1 1.4.2 2.1.2 4 0 8.6-2.1 11.6-7.3 1.1-1.9 1.5-3.6 1.5-5.1 0-3.4-2.2-5.6-5-5.6-2.1 0-4.5 1.5-6.2 4.4l-5.9 10.1a6.22 6.22 0 0 1-3.4-5.4c0-1.7.8-3.5 2.4-4.8l-1.2-2.2c-2.7 1.9-3.9 4.5-3.9 7 0 3 1.7 5.9 4.8 7.5l-1.1 2c-2.7 4.6-1.1 9.7 4.2 9.7 4.2 0 6.1-1.9 8.7-4.4-.8 2.4.4 4.4 3 4.4 1.5 0 3.4-1 5.2-2.5.2 1.5 1.3 2.5 3.3 2.5 1.8 0 3.8-1.1 5.7-2.8l-1.4 2.4h3.8l5.8-10.1c5.8-7.2 8.4-6.3 6.7-3.5l-4.9 8.5c-1.6 2.8-.5 5.4 2.6 5.4 2 0 4.3-1.4 6.4-3.4-.5 2.1.5 3.4 2.4 3.4 1.8 0 3.9-1.5 5.6-3l-2.1 3.6c-5.1 1.5-8.3 3.6-8.3 6.5 0 3.6 5.6 4.4 8.3-.3l2.9-5c3.2-1 6.3-3 9.5-6.2-.5 5.3 6.5 6.5 10.7 1.1h.8c1.4 0 3.2-.5 4.9-1.5l-2.5 4.4h3.8l5.8-10.1c5.8-7.2 8.4-6.3 6.7-3.5l-4.9 8.5c-1.6 2.8-.5 5.4 2.6 5.4s6.7-3.3 9.8-7c-.1 0-.7-.6-1.2-.8Zm118.6-35.6c-2.3 3.7-4.6 5.5-6.2 5.5-.8 0-1.3-.6-.4-2.1l5.3-9.2c2-3.5 6.1-2.6 4.2.8l-2.9 5Zm-36.2.2c-2.3 3.6-4.5 5.3-6.1 5.3-.8 0-1.3-.6-.4-2.1l5.3-9.2c2-3.5 6.1-2.6 4.2.8l-3 5.2Zm-39.9 13.8c-.8 1.4-2.1 1.2-2.1.2s.9-2.1 3.8-3.2l-1.7 3Zm8-28.5c1.1-1.9 2.4-2.8 3.4-2.8 6 0 1.5 14.4-8.1 12.2h-.8l5.5-9.4Zm77.7 14.1-.3.3c-2.7 3.2-5.4 5.7-7 5.7-.8 0-1.3-.6-.4-2.1l12.8-22.1h-3.8l-5.6 9.6c-.7-1.1-1.9-2-3.5-2-2 0-4.9 1.6-6.5 4.4l-3.7 6.4c-.1 0-.2-.1-.2-.1l-.3.3c-2.7 3.2-5 5.7-6.7 5.7-.8 0-1.3-.6-.4-2.1l5.5-9.6c1.6-2.9.1-4.9-2-4.9-1.6 0-3.3.9-5.2 2.8l1.4-2.5h-3.8l-6 10.4c-.1-.1-.2-.1-.4-.2l-.3.3c-2.7 3.2-5.4 5.7-7 5.7-.8 0-1.3-.6-.4-2.1l6.1-10.7H331c.1-1.6-1.5-3.8-4-3.8-2 0-4.9 1.6-6.5 4.4l-3.7 6.3-.2.2c-2.7 3.2-5.8 5.7-7.4 5.7-.8 0-1.3-.6-.4-2.1l3.8-6.6c1.3-2.3.7-3.6-.5-5.1l-2.1-2.5c-.5-.7-.5-1.5.2-2.2l-2-2.1c-2.1 1.9-2.3 4.1-1 5.8l.3.4c-1.7 2.4-3.9 5.6-6.4 8.5l.3.3c-3.1 3.6-5.8 5.9-8.7 7.2l4.8-8.2h-3.8l-.4.7c-2 3.5-4.3 6-7.2 6-2.6 0-3-2.6-.8-6.4l1.1-1.9c.7.1 1.4.2 2.1.2 13.4 0 19.9-18 8.1-18-2.1 0-4.5 1.5-6.2 4.4l-5.9 10.1a6.22 6.22 0 0 1-3.4-5.4c0-1.7.8-3.5 2.4-4.8l-1.2-2.2c-2.7 1.9-3.9 4.5-3.9 7 0 3 1.7 5.9 4.8 7.5l-1.1 2c-2.7 4.6-2.2 9.7 3.2 9.7 1.6 0 2.9-.5 4.1-1.2l-1 1.7c-5.1 1.6-8.3 3.6-8.3 6.5 0 3.6 5.6 4.4 8.3-.3l2.9-5c3.9-1.2 7.8-3.9 11.9-8.7-.1-.1-.1-.2-.2-.4 1.7-2 3.1-3.9 6-7.7l.5.6c.5.6.7 1.4.2 2.1l-4 6.9c-1.6 2.8-.5 5.4 2.6 5.4 1.9 0 4.3-1.2 6.4-3 0 1.7 1.1 3 3.3 3 1.5 0 3.4-1 5.2-2.5.2 1.5 1.3 2.5 3.3 2.5 1.8 0 3.8-1.1 5.7-2.8l-1.4 2.4h3.8l5.8-10.1c5.8-7.2 8.4-6.3 6.7-3.5l-4.9 8.5c-1.6 2.8-.5 5.4 2.6 5.4 2 0 3.8-1.4 6-3.3-.2 1.9 1 3.3 3.3 3.3 1.5 0 3.4-1 5.2-2.5.2 1.5 1.3 2.5 3.3 2.5 3.1 0 6.7-3.3 9.8-7-.5-.3-1.1-.9-1.6-1.1Zm-112.3-5.3c2.2-3.7 6-3.1 3.8.8l-.5.9c-1.8 3.1-4.3 3-5.7 2.5l2.4-4.2Zm-3 13.6c4.3 0 8.5-3.3 11.7-7-.3-.5-.9-1.1-1.4-1.3l-.3.3c-2.7 3.2-6.2 5.7-8.9 5.7-2.3 0-3.7-1.5-2-4.5l.4-.7c2.4 1 7 .5 9.8-4.4l.5-.9c2-3.5.1-6.1-3-6.1-3 0-5.5 1.6-7.1 4.4l-3.7 6.3s-.1 0-.1-.1l-.3.3c-2.7 3.2-5.4 5.7-7 5.7-.8 0-1.3-.6-.4-2.1l5.4-9.6c1.6-2.9.1-4.9-2-4.9-1.6 0-3.4.9-5.3 2.9l6-10.5H244l-10.7 18.5c-.1-.1-.3-.2-.4-.3l-.3.3c-2.7 3.2-5.4 5.7-7 5.7-.8 0-1.3-.6-.4-2.1l8.1-14.1h3.1l1.1-1.8h-3.1l3.6-6.2h-3.8l-3.6 6.2h-3.4l-1.1 1.8h3.4l-7.6 13.2c-1.6 2.8-.5 5.4 2.6 5.4 1.9 0 3.9-1.2 5.9-3l-1.5 2.6h3.8l5.7-10c5.8-7.3 8.4-6.4 6.8-3.6l-4.9 8.5c-1.6 2.8-.5 5.4 2.6 5.4 2.3 0 4.8-1.8 7.3-4.2.2 2.4 2.2 4.2 5.3 4.2ZM128 291.7c2.2-3.7 6-3.1 3.8.8l-.5.9c-1.8 3.1-4.3 3-5.7 2.5l2.4-4.2Zm23.1 9.2 5.3-9.2c2-3.5 6.1-2.6 4.2.8l-2.9 5.2c-2.3 3.6-4.5 5.3-6.1 5.3-.9-.1-1.4-.6-.5-2.1Zm54-9.2c2.2-3.7 6-3.1 3.8.8l-.5.9c-1.8 3.1-4.2 3-5.7 2.5l2.4-4.2Zm-57.8 9.5c-.6 2.2.6 4.1 3.1 4.1 1.5 0 3.4-1 5.2-2.5.2 1.5 1.3 2.5 3.3 2.5 2 0 4.2-1.4 6.4-3.3-.4 2 .5 3.3 2.4 3.3 2.1 0 4.4-1.9 6.2-3.6-.4 2 .8 3.6 3.2 3.6 3.1 0 6.7-3.3 9.8-7 0 0-.1-.1-.1-.2 2.1-2.4 3.9-5 5.2-6.8-1.5 3.9-.7 11-4.3 11-1.3 0-1.8-1.4-1.8-1.4l-2.4 1.2s.7 3.1 4.1 3.1c.4 0 .7 0 1.1-.1h.1c2.8-.4 5.5-2.1 7.9-4.2.1 2.5 2 4.3 5.1 4.3 4.3 0 8.5-3.3 11.7-7-.3-.5-.9-1.1-1.4-1.3l-.3.3c-2.7 3.2-6.2 5.7-8.9 5.7-2.3 0-3.7-1.5-2-4.5l.4-.7c2.4 1 7 .5 9.8-4.4l.5-.9c2-3.5.1-6.1-3-6.1s-5.5 1.6-7.1 4.4l-3.7 6.3h-.1l-.3.3c-1.3 1.6-2.9 2.9-4.5 4.1 1.2-3.6.9-9.1 3.3-14l-2.8-1.5c-1.6 2.1-5 7.1-8.4 11.1l.1.1-.1.2c-2.7 3.2-5.4 5.7-7 5.7-.8 0-1.3-.6-.4-2.1l8.1-14.1h-3.8l-6.7 11.7c-2.9 2.6-5.1 4.1-5.8 3.7-.9-.4 0-1.8.5-2.6l7.4-12.9h-3.8l-6 10.4c-.1-.1-.2-.1-.3-.2l-.3.3c-2.7 3.2-5.4 5.7-7 5.7-.8 0-1.3-.6-.4-2.1l6.1-10.7h-2.1c.1-1.6-1.5-3.8-4-3.8-2 0-4.9 1.6-6.5 4.4l-3.8 6.6c-.2-.1-.4-.3-.6-.4l-.3.3c-2.7 3.2-5.9 5.7-8.5 5.7-2.3 0-3.7-1.5-2-4.5l3.9-6.8c2.2-3.7 6-3.1 3.8.8l-.5.9h3.1l.5-.9c2-3.5.1-6.1-3-6.1s-5.1 1.6-6.7 4.4l-3.8 6.4c-.1-.1-.2-.1-.3-.2l-.3.3c-2.7 3.2-5.9 5.7-8.6 5.7-2.3 0-3.7-1.5-2-4.5l.4-.7c2.4 1 7 .5 9.8-4.4l.5-.9c2-3.5.1-6.1-3-6.1s-5.5 1.6-7.1 4.4l-4 6.8c-2.4 4-.3 7.7 4.1 7.7 3.3 0 6-2 8.8-4.6-.1 2.6 1.9 4.6 5.1 4.6 3.4.1 6.1-1.7 8.8-4Zm-36.9-14 3.1-5.2c2.8-4.8 6.3-2 4.4 1.6-1.5 2.7-3.6 3.6-7.5 3.6Zm-4.1 17.3c-2.3 0-4-.5-5.4-1.3.7-.8 1.3-1.7 1.9-2.7l6.4-11 1 .1c8.8 1.8 5.3 14.9-3.9 14.9Zm9.4-15.5c7.6-2.6 8.2-12.1.7-12.1-2.1 0-4.5 1.5-6.2 4.4L100 298.9a8 8 0 0 1-1.5 2.1c-2.6-3.6-1.9-9 1.8-11.3l-1.5-1.9c-7.9 5-5.6 19.6 7.6 19.6 11.3 0 16.5-13.6 9.3-18.4Z" fill="#fff"/></g></symbol><symbol id="youtube"><g fill="none"><path d="M18.6 0H3.18C1.31 0 0 1.6 0 3.4v10.1C0 15.4 1.31 17 3.17 17h15.66c1.64 0 3.17-1.6 3.17-3.4V3.4C21.78 1.6 20.47 0 18.6 0ZM7.67 12.54V4.46L15 8.5l-7.33 4.04Z" fill="#83B3D3"/></g></symbol></svg>